<svg xmlns="http://www.w3.org/2000/svg" width="960" height="560" role="img">
<rect width="100%" height="100%" fill="white"/>
<text x="273.0" y="28" text-anchor="middle" font-size="17" font-weight="bold" font-family="sans-serif">Encode (M tok/s)</text>
<text x="273.0" y="46" text-anchor="middle" font-size="12" fill="#555" font-family="sans-serif">M tok/s, higher is better · 5MB Alice corpus, best-of-3</text>
<line x1="64" y1="366.0" x2="482" y2="366.0" stroke="#e5e7eb"/>
<text x="56" y="370.0" text-anchor="end" font-size="11" fill="#555" font-family="sans-serif">5</text>
<line x1="64" y1="262.0" x2="482" y2="262.0" stroke="#e5e7eb"/>
<text x="56" y="266.0" text-anchor="end" font-size="11" fill="#555" font-family="sans-serif">10</text>
<line x1="64" y1="158.0" x2="482" y2="158.0" stroke="#e5e7eb"/>
<text x="56" y="162.0" text-anchor="end" font-size="11" fill="#555" font-family="sans-serif">15</text>
<line x1="64" y1="54.0" x2="482" y2="54.0" stroke="#e5e7eb"/>
<text x="56" y="58.0" text-anchor="end" font-size="11" fill="#555" font-family="sans-serif">20</text>
<text x="133.66666666666669" y="492" text-anchor="middle" font-size="12" font-weight="bold" font-family="sans-serif">gpt2 (r50k)</text>
<rect x="79.0" y="101.8" width="27.3" height="368.2" fill="#2563eb" rx="2"/>
<text x="92.7" y="97.8" text-anchor="middle" font-size="10.5" font-weight="bold" font-family="sans-serif">17.7</text>
<rect x="106.3" y="166.3" width="27.3" height="303.7" fill="#16a34a" rx="2"/>
<text x="120.0" y="162.3" text-anchor="middle" font-size="10.5" font-weight="bold" font-family="sans-serif">14.6</text>
<rect x="133.7" y="339.0" width="27.3" height="131.0" fill="#f59e0b" rx="2"/>
<text x="147.3" y="335.0" text-anchor="middle" font-size="10.5" font-weight="bold" font-family="sans-serif">6.3</text>
<rect x="161.0" y="357.7" width="27.3" height="112.3" fill="#ef4444" rx="2"/>
<text x="174.7" y="353.7" text-anchor="middle" font-size="10.5" font-weight="bold" font-family="sans-serif">5.4</text>
<text x="273.0" y="492" text-anchor="middle" font-size="12" font-weight="bold" font-family="sans-serif">cl100k</text>
<rect x="218.3" y="183.0" width="27.3" height="287.0" fill="#2563eb" rx="2"/>
<text x="232.0" y="179.0" text-anchor="middle" font-size="10.5" font-weight="bold" font-family="sans-serif">13.8</text>
<rect x="245.7" y="220.4" width="27.3" height="249.6" fill="#16a34a" rx="2"/>
<text x="259.3" y="216.4" text-anchor="middle" font-size="10.5" font-weight="bold" font-family="sans-serif">12</text>
<rect x="273.0" y="366.0" width="27.3" height="104.0" fill="#f59e0b" rx="2"/>
<text x="286.7" y="362.0" text-anchor="middle" font-size="10.5" font-weight="bold" font-family="sans-serif">5</text>
<rect x="300.3" y="368.1" width="27.3" height="101.9" fill="#ef4444" rx="2"/>
<text x="314.0" y="364.1" text-anchor="middle" font-size="10.5" font-weight="bold" font-family="sans-serif">4.9</text>
<text x="412.33333333333337" y="492" text-anchor="middle" font-size="12" font-weight="bold" font-family="sans-serif">o200k</text>
<rect x="357.7" y="247.4" width="27.3" height="222.6" fill="#2563eb" rx="2"/>
<text x="371.3" y="243.4" text-anchor="middle" font-size="10.5" font-weight="bold" font-family="sans-serif">10.7</text>
<rect x="385.0" y="280.7" width="27.3" height="189.3" fill="#16a34a" rx="2"/>
<text x="398.7" y="276.7" text-anchor="middle" font-size="10.5" font-weight="bold" font-family="sans-serif">9.1</text>
<rect x="412.3" y="318.2" width="27.3" height="151.8" fill="#f59e0b" rx="2"/>
<text x="426.0" y="314.2" text-anchor="middle" font-size="10.5" font-weight="bold" font-family="sans-serif">7.3</text>
<rect x="439.7" y="299.4" width="27.3" height="170.6" fill="#ef4444" rx="2"/>
<text x="453.3" y="295.4" text-anchor="middle" font-size="10.5" font-weight="bold" font-family="sans-serif">8.2</text>
<line x1="64" y1="470" x2="482" y2="470" stroke="#111"/>
<text x="731.0" y="28" text-anchor="middle" font-size="17" font-weight="bold" font-family="sans-serif">Decode (M tok/s)</text>
<text x="731.0" y="46" text-anchor="middle" font-size="12" fill="#555" font-family="sans-serif">M tok/s, higher is better · 5MB Alice corpus, best-of-3</text>
<line x1="522" y1="366.0" x2="940" y2="366.0" stroke="#e5e7eb"/>
<text x="514" y="370.0" text-anchor="end" font-size="11" fill="#555" font-family="sans-serif">55</text>
<line x1="522" y1="262.0" x2="940" y2="262.0" stroke="#e5e7eb"/>
<text x="514" y="266.0" text-anchor="end" font-size="11" fill="#555" font-family="sans-serif">110</text>
<line x1="522" y1="158.0" x2="940" y2="158.0" stroke="#e5e7eb"/>
<text x="514" y="162.0" text-anchor="end" font-size="11" fill="#555" font-family="sans-serif">165</text>
<line x1="522" y1="54.0" x2="940" y2="54.0" stroke="#e5e7eb"/>
<text x="514" y="58.0" text-anchor="end" font-size="11" fill="#555" font-family="sans-serif">220</text>
<text x="591.6666666666666" y="492" text-anchor="middle" font-size="12" font-weight="bold" font-family="sans-serif">gpt2 (r50k)</text>
<rect x="537.0" y="121.1" width="27.3" height="348.9" fill="#2563eb" rx="2"/>
<text x="550.7" y="117.1" text-anchor="middle" font-size="10.5" font-weight="bold" font-family="sans-serif">184.5</text>
<rect x="564.3" y="289.4" width="27.3" height="180.6" fill="#16a34a" rx="2"/>
<text x="578.0" y="285.4" text-anchor="middle" font-size="10.5" font-weight="bold" font-family="sans-serif">95.5</text>
<rect x="591.7" y="385.9" width="27.3" height="84.1" fill="#f59e0b" rx="2"/>
<text x="605.3" y="381.9" text-anchor="middle" font-size="10.5" font-weight="bold" font-family="sans-serif">44.5</text>
<rect x="619.0" y="311.5" width="27.3" height="158.5" fill="#ef4444" rx="2"/>
<text x="632.7" y="307.5" text-anchor="middle" font-size="10.5" font-weight="bold" font-family="sans-serif">83.8</text>
<text x="731.0" y="492" text-anchor="middle" font-size="12" font-weight="bold" font-family="sans-serif">cl100k</text>
<rect x="676.3" y="107.7" width="27.3" height="362.3" fill="#2563eb" rx="2"/>
<text x="690.0" y="103.7" text-anchor="middle" font-size="10.5" font-weight="bold" font-family="sans-serif">191.6</text>
<rect x="703.7" y="297.5" width="27.3" height="172.5" fill="#16a34a" rx="2"/>
<text x="717.3" y="293.5" text-anchor="middle" font-size="10.5" font-weight="bold" font-family="sans-serif">91.2</text>
<rect x="731.0" y="377.5" width="27.3" height="92.5" fill="#f59e0b" rx="2"/>
<text x="744.7" y="373.5" text-anchor="middle" font-size="10.5" font-weight="bold" font-family="sans-serif">48.9</text>
<rect x="758.3" y="302.1" width="27.3" height="167.9" fill="#ef4444" rx="2"/>
<text x="772.0" y="298.1" text-anchor="middle" font-size="10.5" font-weight="bold" font-family="sans-serif">88.8</text>
<text x="870.3333333333334" y="492" text-anchor="middle" font-size="12" font-weight="bold" font-family="sans-serif">o200k</text>
<rect x="815.7" y="99.9" width="27.3" height="370.1" fill="#2563eb" rx="2"/>
<text x="829.3" y="95.9" text-anchor="middle" font-size="10.5" font-weight="bold" font-family="sans-serif">195.7</text>
<rect x="843.0" y="300.0" width="27.3" height="170.0" fill="#16a34a" rx="2"/>
<text x="856.7" y="296.0" text-anchor="middle" font-size="10.5" font-weight="bold" font-family="sans-serif">89.9</text>
<rect x="870.3" y="379.8" width="27.3" height="90.2" fill="#f59e0b" rx="2"/>
<text x="884.0" y="375.8" text-anchor="middle" font-size="10.5" font-weight="bold" font-family="sans-serif">47.7</text>
<rect x="897.7" y="305.7" width="27.3" height="164.3" fill="#ef4444" rx="2"/>
<text x="911.3" y="301.7" text-anchor="middle" font-size="10.5" font-weight="bold" font-family="sans-serif">86.9</text>
<line x1="522" y1="470" x2="940" y2="470" stroke="#111"/>
<rect x="64" y="510" width="14" height="14" fill="#2563eb"/>
<text x="84" y="522" font-size="12" font-family="sans-serif">Mojo native</text>
<rect x="284" y="510" width="14" height="14" fill="#16a34a"/>
<text x="304" y="522" font-size="12" font-family="sans-serif">Py bindings</text>
<rect x="504" y="510" width="14" height="14" fill="#f59e0b"/>
<text x="524" y="522" font-size="12" font-family="sans-serif">tiktoken (Py)</text>
<rect x="724" y="510" width="14" height="14" fill="#ef4444"/>
<text x="744" y="522" font-size="12" font-family="sans-serif">tiktoken-rs</text>
<text x="940" y="550" text-anchor="end" font-size="10" fill="#888" font-family="sans-serif">mbpe README benchmarks · AMD EPYC 9B45, Mojo 1.0.0, tiktoken 0.14.0</text>
</svg>